<?xml version="1.0" encoding="UTF-8"?>
<!DOCTYPE svg PUBLIC "-//W3C//DTD SVG 1.1//EN" "http://www.w3.org/Graphics/SVG/1.1/DTD/svg11.dtd">
<!-- Creator: CorelDRAW 2020 (64 Bit) -->
<svg xmlns="http://www.w3.org/2000/svg" xml:space="preserve" width="677px" height="499px" version="1.1" style="shape-rendering:geometricPrecision; text-rendering:geometricPrecision; image-rendering:optimizeQuality; fill-rule:evenodd; clip-rule:evenodd"
viewBox="0 0 677 499.16"
 xmlns:xlink="http://www.w3.org/1999/xlink"
 xmlns:xodm="http://www.corel.com/coreldraw/odm/2003">
 <defs>
  <style type="text/css">
   <![CDATA[
    .fil0 {fill:#663300}
    .fil1 {fill:#996633}
   ]]>
  </style>
 </defs>
 <g id="Camada_x0020_1">
  <metadata id="CorelCorpID_0Corel-Layer"/>
  <g id="_1511458536352">
   <path class="fil0" d="M427.01 0.35c137.84,0 249.58,111.74 249.58,249.58 0,137.84 -111.74,249.59 -249.58,249.59 -63.6,0 -121.64,-23.81 -165.71,-62.98l0.37 -0.08c1.86,0.53 4.03,1.52 5.78,2.05 59.27,17.93 117.48,22.67 171.25,-13.41 7.29,-4.89 13.33,-10.17 19.69,-16.15l0.11 -0.11 6.75 -6.66c9.94,-9.82 19.86,-25.15 26.98,-37.25 10.58,-17.99 18.69,-38.59 24.83,-58.54 2.23,-7.22 4.37,-14.53 5.95,-21.93 2.25,-8.16 3.89,-16.72 5.3,-25.2l0.26 -1.22 -0.06 0.04c0.41,-2.5 0.8,-4.98 1.18,-7.45 0.93,-5.92 1.75,-11.86 2.47,-17.8 0.45,-3.67 0.97,-7.38 1.34,-11.1 1.5,-0.49 2.98,-0.96 4.29,-1.43 6.1,-2.2 12.2,-4.56 18.26,-6.9 3.96,-1.52 7.92,-3.05 11.86,-4.63 2.54,-1.02 5.56,-2.13 7.95,-3.44l14.16 -7.77 -11.02 -11.82c-3.25,-3.49 -9.05,-6.17 -13.15,-8.78 -3.72,-2.37 -7.59,-4.51 -11.34,-6.83 -3.83,-2.38 -7.73,-4.69 -11.7,-6.82l-6.84 -3.84c-2.85,-9.5 -4.88,-14.81 -13.48,-23.69 -6.79,-7.01 -15.9,-12.57 -24.7,-16.73 -32.9,-15.54 -73.59,-17.44 -106.84,-1.94 -5.87,2.74 -11.49,6.01 -16.74,9.8 -8.03,5.79 -14.19,12.28 -20.2,20.1 -2.88,3.74 -5.73,8.72 -8.01,12.86 -1.83,3.33 -4.03,7.46 -5.35,11.6 -2.16,2.38 -3.98,5.15 -5.87,7.65l-5.82 7.53c-0.27,0.28 -0.52,0.58 -0.76,0.89 -0.56,0.56 -1.09,1.19 -1.59,1.87l-10.62 12.84 -0.2 0.28c-3.7,5.01 -8.54,9.41 -12.03,14.63l-38.57 46.01 -0.11 0.14c-2.46,3.11 -5.06,6.11 -7.6,9.16l-31.29 37.56c-9.91,11.89 -19.62,23.96 -29.7,35.69 -12.28,-29.49 -19.06,-61.84 -19.06,-95.79 0,-137.84 111.74,-249.58 249.58,-249.58z"/>
   <path class="fil1" d="M121.68 456.07l-39.05 27.22c3.76,2.42 26.17,2.69 31.65,2.23 22.87,-1.91 31.18,-10.63 47.11,-23.25 3.24,-2.57 6.43,-5.11 9.84,-7.73l9.96 -7.85 20.34 -5.03c12.57,-3.12 27.42,-7.58 39.83,-11.5 3.25,-1.03 17.66,-6.4 19.5,-6.39 2.28,-0.5 7.8,1.98 10.23,2.71 55.61,16.83 110.12,22.06 160.6,-11.82 7.21,-4.84 12.12,-9.26 18.09,-14.87l6.64 -6.55c8.61,-8.65 19.11,-24.69 24.98,-34.68 9.74,-16.57 17.76,-36.73 23.65,-55.87 2.04,-6.62 4.25,-14.13 5.74,-21.22 2.68,-9.59 4.85,-22.27 6.49,-32.77 0.9,-5.84 1.69,-11.55 2.4,-17.39 0.68,-5.54 1.73,-12.79 1.78,-18.28 1.88,-1.19 9.11,-3.49 12.07,-4.56 4.89,-1.76 33.31,-12.53 36.28,-14.16 -1.32,-1.41 -8.39,-5.27 -10.71,-6.75 -3.54,-2.25 -7.56,-4.48 -11.21,-6.75 -3.5,-2.17 -7.43,-4.5 -11.13,-6.48l-11.38 -6.4c-2.91,-9.73 -3.2,-14.41 -11.91,-23.4 -5.55,-5.73 -13.52,-10.56 -21.05,-14.12 -34.99,-16.52 -79.57,-15.89 -110.86,6.69 -7.11,5.13 -12.24,10.61 -17.59,17.57 -2.29,2.98 -12.21,19.06 -11.93,23.57 1.25,0.64 3.4,2.31 4.69,3.26l34.09 24.58c1.28,-9.35 6.54,-15.09 12.57,-18.58 5.7,-3.31 17.69,-6.69 25.55,-4.89 0.75,15.87 7.99,29.83 21.47,36.33 11.17,5.37 20.38,3.94 23.04,5.9 1.08,0.8 1.45,1.23 2.51,2.24 0.95,0.91 1.8,1.47 2.77,2.37 9.08,8.41 20.74,21.87 24.99,33.14 -0.21,1.68 0.73,0.7 -1.29,1.6 -2.68,1.19 -11.07,3.48 -13.82,4.13 -5.82,1.36 -11.61,2.22 -17.75,2.65 -15.77,1.1 -22.68,-0.76 -37.26,-3.14 -2.1,-2.52 -4.83,-7 -9.11,-11.98 -3.31,-3.86 -6.72,-7.35 -10.38,-10.5 -9.89,-8.48 -11.51,-10.18 -23.23,-18.52 -8.2,-5.84 -16.54,-10.82 -25.56,-16.2l-26.9 -14.58c-1.44,-0.02 -1.26,0.37 -2.09,1.33l-10.43 12.61c-2.97,4.02 -9.72,11.01 -12.03,14.67l-38.93 46.44c-2.56,3.24 -5.19,6.25 -7.81,9.41l-31.29 37.56c-10.24,12.11 -21.16,25.84 -31.3,37.56l-14.66 17.57c-0.87,1.14 -0.5,0.11 -0.72,1.49l-21.58 25.29c-1.96,2.29 -2.66,3.8 -4.69,4.83l-138.05 70.36c-8.25,4.26 -17.05,8.88 -25.25,12.79 0.33,0.33 0.17,0.23 0.69,0.54l7.24 2.3c8.94,2.46 19.78,4.16 29.11,3.9 15.7,-0.42 22.22,-4.08 33.12,-10.52 9.09,-5.37 18.24,-10.74 27.55,-16.03 9.18,-5.22 18.28,-10.85 27.46,-15.91 -0.61,0.94 -2.29,3.12 -3.08,3.83z"/>
  </g>
 </g>
</svg>
