<?xml version="1.0" encoding="UTF-8"?>
<!DOCTYPE svg PUBLIC "-//W3C//DTD SVG 1.1//EN" "http://www.w3.org/Graphics/SVG/1.1/DTD/svg11.dtd">
<!-- Creator: CorelDRAW 2020 (64 Bit) -->
<svg xmlns="http://www.w3.org/2000/svg" xml:space="preserve" width="2343px" height="499px" version="1.1" style="shape-rendering:geometricPrecision; text-rendering:geometricPrecision; image-rendering:optimizeQuality; fill-rule:evenodd; clip-rule:evenodd"
viewBox="0 0 2343 499.2"
 xmlns:xlink="http://www.w3.org/1999/xlink"
 xmlns:xodm="http://www.corel.com/coreldraw/odm/2003">
 <defs>
  <style type="text/css">
   <![CDATA[
    .fil0 {fill:black}
    .fil1 {fill:black;fill-rule:nonzero}
   ]]>
  </style>
 </defs>
 <g id="Camada_x0020_1">
  <metadata id="CorelCorpID_0Corel-Layer"/>
  <path class="fil0" d="M427.17 0.35c137.85,0 249.6,111.75 249.6,249.6 0,137.85 -111.75,249.6 -249.6,249.6 -63.61,0 -121.65,-23.8 -165.72,-62.98l0.37 -0.08c1.86,0.54 4.03,1.52 5.78,2.05 59.27,17.94 117.49,22.68 171.26,-13.41 7.29,-4.89 13.33,-10.17 19.7,-16.15l0.11 -0.11 6.74 -6.66c9.95,-9.82 19.87,-25.15 26.99,-37.25 10.58,-18 18.69,-38.6 24.83,-58.55 2.23,-7.22 4.37,-14.53 5.95,-21.93 2.25,-8.16 3.89,-16.72 5.3,-25.2l0.26 -1.22 -0.06 0.04c0.41,-2.5 0.8,-4.99 1.18,-7.45 0.93,-5.92 1.75,-11.86 2.47,-17.81 0.45,-3.66 0.97,-7.38 1.34,-11.1 1.5,-0.49 2.98,-0.95 4.29,-1.42 6.1,-2.2 12.2,-4.57 18.26,-6.9 3.96,-1.52 7.92,-3.06 11.86,-4.64 2.54,-1.01 5.57,-2.13 7.95,-3.43l14.17 -7.78 -11.02 -11.82c-3.26,-3.49 -9.06,-6.16 -13.15,-8.77 -3.73,-2.38 -7.59,-4.51 -11.34,-6.84 -3.84,-2.38 -7.74,-4.69 -11.71,-6.82l-6.84 -3.84c-2.84,-9.5 -4.88,-14.81 -13.48,-23.69 -6.79,-7.01 -15.9,-12.57 -24.71,-16.73 -32.9,-15.54 -73.59,-17.44 -106.84,-1.94 -5.87,2.73 -11.49,6.01 -16.74,9.8 -8.03,5.79 -14.19,12.28 -20.2,20.1 -2.89,3.74 -5.73,8.72 -8.01,12.86 -1.84,3.33 -4.03,7.46 -5.35,11.61 -2.16,2.37 -3.98,5.14 -5.87,7.65l-5.83 7.52c-0.26,0.29 -0.51,0.59 -0.75,0.89 -0.56,0.57 -1.09,1.19 -1.59,1.88l-10.62 12.83 -0.21 0.28c-3.7,5.02 -8.53,9.42 -12.03,14.64l-38.56 46.01 -0.12 0.14c-2.46,3.11 -5.06,6.11 -7.6,9.16l-31.29 37.56c-9.91,11.89 -19.62,23.96 -29.71,35.7 -12.27,-29.5 -19.06,-61.85 -19.06,-95.8 0,-137.85 111.75,-249.6 249.6,-249.6z"/>
  <path class="fil0" d="M121.82 456.1l-39.06 27.22c3.77,2.42 26.18,2.7 31.66,2.24 22.87,-1.92 31.18,-10.64 47.11,-23.26 3.24,-2.56 6.43,-5.1 9.85,-7.73l9.95 -7.85 20.34 -5.02c12.57,-3.13 27.43,-7.58 39.83,-11.51 3.26,-1.02 17.67,-6.4 19.51,-6.39 2.28,-0.5 7.8,1.98 10.23,2.71 55.62,16.83 110.13,22.06 160.62,-11.82 7.21,-4.84 12.12,-9.26 18.09,-14.87l6.63 -6.55c8.62,-8.65 19.11,-24.7 24.98,-34.68 9.75,-16.57 17.76,-36.74 23.66,-55.88 2.04,-6.61 4.25,-14.13 5.74,-21.22 2.68,-9.59 4.85,-22.27 6.49,-32.77 0.9,-5.84 1.69,-11.55 2.4,-17.4 0.68,-5.53 1.73,-12.79 1.78,-18.28 1.88,-1.18 9.11,-3.48 12.07,-4.55 4.89,-1.76 33.32,-12.54 36.28,-14.16 -1.31,-1.41 -8.39,-5.27 -10.71,-6.75 -3.54,-2.26 -7.55,-4.49 -11.21,-6.76 -3.5,-2.17 -7.43,-4.5 -11.13,-6.48l-11.38 -6.39c-2.91,-9.74 -3.2,-14.42 -11.92,-23.41 -5.54,-5.73 -13.51,-10.56 -21.04,-14.12 -35,-16.53 -79.57,-15.89 -110.87,6.69 -7.11,5.13 -12.24,10.61 -17.59,17.57 -2.3,2.98 -12.21,19.06 -11.93,23.58 1.25,0.64 3.4,2.3 4.69,3.26l34.09 24.57c1.28,-9.34 6.55,-15.09 12.57,-18.58 5.7,-3.3 17.69,-6.68 25.55,-4.88 0.76,15.86 7.99,29.83 21.48,36.33 11.16,5.37 20.38,3.94 23.03,5.9 1.09,0.8 1.45,1.23 2.52,2.24 0.95,0.9 1.8,1.47 2.77,2.36 9.08,8.41 20.74,21.88 24.99,33.15 -0.21,1.68 0.73,0.7 -1.29,1.6 -2.68,1.19 -11.07,3.49 -13.82,4.13 -5.82,1.36 -11.62,2.22 -17.75,2.65 -15.78,1.1 -22.68,-0.76 -37.27,-3.14 -2.09,-2.52 -4.83,-7 -9.11,-11.98 -3.3,-3.86 -6.71,-7.36 -10.38,-10.5 -9.89,-8.48 -11.51,-10.18 -23.23,-18.52 -8.2,-5.84 -16.54,-10.82 -25.56,-16.2l-26.9 -14.58c-1.45,-0.02 -1.27,0.36 -2.09,1.32l-10.43 12.62c-2.97,4.02 -9.72,11.01 -12.03,14.67l-38.94 46.44c-2.56,3.24 -5.19,6.25 -7.81,9.41l-31.29 37.57c-10.25,12.11 -21.17,25.84 -31.3,37.56l-14.67 17.56c-0.87,1.15 -0.5,0.12 -0.71,1.5l-21.59 25.29c-1.96,2.29 -2.66,3.8 -4.69,4.83l-138.05 70.37c-8.26,4.26 -17.06,8.87 -25.26,12.78 0.33,0.33 0.17,0.24 0.69,0.55l7.24 2.3c8.94,2.46 19.78,4.15 29.12,3.9 15.69,-0.43 22.22,-4.09 33.12,-10.53 9.09,-5.37 18.24,-10.74 27.55,-16.03 9.17,-5.22 18.28,-10.85 27.46,-15.91 -0.61,0.95 -2.29,3.12 -3.08,3.83z"/>
  <path class="fil1" d="M729.07 314.99l13.54 -20.08c13.25,10.24 27.02,18.06 41.31,23.49 14.29,5.38 28.47,8.1 42.47,8.1 17.3,0 31.36,-3.64 42.12,-10.99 10.82,-7.35 16.2,-16.78 16.2,-28.29 0,-9.15 -3.87,-16.67 -11.63,-22.57 -7.75,-5.9 -18.45,-9.43 -32.11,-10.59 -3.3,-0.35 -8.04,-0.69 -14.23,-0.98 -30.78,-2.2 -51.73,-5.79 -62.96,-10.88 -8.68,-4.22 -15.33,-9.61 -19.84,-16.2 -4.52,-6.65 -6.77,-14.06 -6.77,-22.34 0,-15.04 6.71,-27.42 20.19,-37.2 13.43,-9.72 30.9,-14.58 52.37,-14.58 15.62,0 31.01,2.54 46.23,7.69 15.22,5.15 29.68,12.79 43.34,22.86l-13.54 19.44c-11.58,-9.32 -23.67,-16.32 -36.4,-21.06 -12.73,-4.69 -25.8,-7.06 -39.23,-7.06 -14.12,0 -25.75,2.78 -34.95,8.27 -9.14,5.5 -13.71,12.39 -13.71,20.66 0,3.24 0.75,6.25 2.2,8.97 1.45,2.72 3.76,5.32 6.77,7.7 7.69,5.72 24.3,9.43 49.88,10.99 11.74,0.69 20.88,1.39 27.31,2.2 18.97,2.14 34.02,8.21 45.13,18.28 11.05,10.07 16.6,22.39 16.6,37.09 0,17.48 -7.58,31.88 -22.79,43.17 -15.22,11.28 -35.18,16.95 -59.83,16.95 -18.63,0 -35.99,-2.72 -51.96,-8.1 -16.03,-5.44 -31.25,-13.72 -45.71,-24.94zm295.72 -56.18l82.63 0c7.69,0 13.65,-1.68 17.76,-5.1 4.11,-3.41 6.19,-8.27 6.19,-14.63 0,-6.2 -1.97,-11 -5.96,-14.41 -3.93,-3.42 -9.6,-5.09 -16.95,-5.09l-83.67 0 0 39.23zm0 21.17l0 63.19 -22.57 0 0 -144.77 105.2 0c14.92,0 26.5,3.53 34.77,10.59 8.27,7.06 12.44,17.01 12.44,29.8 0,12.09 -4.11,21.98 -12.32,29.68 -8.28,7.69 -19.1,11.51 -32.46,11.51l-85.06 0zm218.71 7.29l56.59 0 -28.12 -55.49 -28.47 55.49zm-52.48 55.9l73.66 -144.77 14.23 0 74.24 144.77 -24.25 0 -18.8 -36.8 -76.44 0 -18.69 36.8 -23.95 0zm257.76 -84.36l76.96 0c7.81,0 13.77,-1.68 17.88,-5.1 4.11,-3.41 6.19,-8.27 6.19,-14.63 0,-6.31 -2.08,-11.17 -6.19,-14.47 -4.11,-3.36 -10.07,-5.03 -17.88,-5.03l-76.96 0 0 39.23zm0 21.17l0 63.19 -22.56 0 0 -144.42 99.52 0c14.81,0 26.38,3.58 34.77,10.7 8.39,7.12 12.56,17.01 12.56,29.68 0,10.24 -3.3,19.16 -9.95,26.68 -6.6,7.52 -15.22,12.15 -25.87,13.83l40.33 63.53 -24.59 0 -41.08 -63.19 -63.13 0zm239.31 -21.17l76.95 0c7.82,0 13.78,-1.68 17.88,-5.1 4.11,-3.41 6.2,-8.27 6.2,-14.63 0,-6.31 -2.09,-11.17 -6.2,-14.47 -4.1,-3.36 -10.06,-5.03 -17.88,-5.03l-76.95 0 0 39.23zm0 21.17l0 63.19 -22.57 0 0 -144.42 99.52 0c14.82,0 26.39,3.58 34.78,10.7 8.39,7.12 12.56,17.01 12.56,29.68 0,10.24 -3.3,19.16 -9.96,26.68 -6.59,7.52 -15.21,12.15 -25.86,13.83l40.33 63.53 -24.59 0 -41.08 -63.19 -63.13 0zm292.42 46.52c19.33,0 35.13,-5.2 47.33,-15.68 12.21,-10.41 18.29,-23.72 18.29,-39.86 0,-16.03 -6.13,-29.28 -18.4,-39.81 -12.27,-10.47 -28.01,-15.74 -47.22,-15.74 -19.21,0 -34.89,5.21 -47.04,15.68 -12.15,10.42 -18.22,23.72 -18.22,39.87 0,16.14 6.07,29.45 18.22,39.86 12.15,10.48 27.83,15.68 47.04,15.68zm0 21.18c-25.74,0 -46.98,-7.29 -63.59,-21.87 -16.6,-14.52 -24.94,-32.81 -24.94,-54.85 0,-22.11 8.28,-40.39 24.83,-54.8 16.6,-14.41 37.84,-21.58 63.7,-21.58 26.1,0 47.45,7.17 64.06,21.52 16.55,14.35 24.82,32.64 24.82,54.86 0,22.16 -8.33,40.44 -24.94,54.97 -16.61,14.52 -37.9,21.75 -63.94,21.75zm204.25 -4.51l-48.95 -144.77 22.39 0 35.24 105.94 36.39 -105.94 18.86 0 36.4 105.94 35.41 -105.94 22.22 0 -48.66 144.77 -16.26 0 -38.42 -111.39 -38.65 111.39 -15.97 0z"/>
 </g>
</svg>
